<svg width="24" height="24" viewBox="0 0 24 24" fill="none" xmlns="http://www.w3.org/2000/svg">
<g clip-path="url(#clip0_3_1129)">
<rect width="24" height="24" fill="white"/>
<path d="M23.25 24H0.75C0.546875 24 0.371094 23.9258 0.222656 23.7773C0.0742188 23.6289 0 23.4531 0 23.25C0 23.0469 0.0742188 22.8711 0.222656 22.7227C0.371094 22.5742 0.546875 22.5 0.75 22.5H1.5C1.92188 22.5 2.27734 22.3516 2.56641 22.0547C2.85547 21.7578 3 21.4062 3 21V1.5C3 1.09375 3.14844 0.742188 3.44531 0.445312C3.74219 0.148438 4.09375 0 4.5 0H19.5C19.9219 0 20.2773 0.148438 20.5664 0.445312C20.8555 0.742188 21 1.09375 21 1.5V21C21 21.4219 21.1484 21.7773 21.4453 22.0664C21.7422 22.3555 22.0938 22.5 22.5 22.5H23.25C23.4531 22.5 23.6289 22.5742 23.7773 22.7227C23.9258 22.8711 24 23.0469 24 23.25C24 23.4531 23.9258 23.6289 23.7773 23.7773C23.6289 23.9258 23.4531 24 23.25 24ZM9 3.75C9 3.54688 8.92578 3.37109 8.77734 3.22266C8.62891 3.07422 8.45312 3 8.25 3H6.75C6.54688 3 6.37109 3.07422 6.22266 3.22266C6.07422 3.37109 6 3.54688 6 3.75V5.25C6 5.45312 6.07422 5.62891 6.22266 5.77734C6.37109 5.92578 6.54688 6 6.75 6H8.25C8.45312 6 8.62891 5.92578 8.77734 5.77734C8.92578 5.62891 9 5.45312 9 5.25V3.75ZM9 8.25C9 8.04688 8.92578 7.87109 8.77734 7.72266C8.62891 7.57422 8.45312 7.5 8.25 7.5H6.75C6.54688 7.5 6.37109 7.57422 6.22266 7.72266C6.07422 7.87109 6 8.04688 6 8.25V9.75C6 9.95312 6.07422 10.1289 6.22266 10.2773C6.37109 10.4258 6.54688 10.5 6.75 10.5H8.25C8.45312 10.5 8.62891 10.4258 8.77734 10.2773C8.92578 10.1289 9 9.95312 9 9.75V8.25ZM9 12.75C9 12.5469 8.92578 12.3711 8.77734 12.2227C8.62891 12.0742 8.45312 12 8.25 12H6.75C6.54688 12 6.37109 12.0742 6.22266 12.2227C6.07422 12.3711 6 12.5469 6 12.75V14.25C6 14.4531 6.07422 14.6289 6.22266 14.7773C6.37109 14.9258 6.54688 15 6.75 15H8.25C8.45312 15 8.62891 14.9258 8.77734 14.7773C8.92578 14.6289 9 14.4531 9 14.25V12.75ZM13.5 3.75C13.5 3.54688 13.4258 3.37109 13.2773 3.22266C13.1289 3.07422 12.9531 3 12.75 3H11.25C11.0469 3 10.8711 3.07422 10.7227 3.22266C10.5742 3.37109 10.5 3.54688 10.5 3.75V5.25C10.5 5.45312 10.5742 5.62891 10.7227 5.77734C10.8711 5.92578 11.0469 6 11.25 6H12.75C12.9531 6 13.1289 5.92578 13.2773 5.77734C13.4258 5.62891 13.5 5.45312 13.5 5.25V3.75ZM13.5 8.25C13.5 8.04688 13.4258 7.87109 13.2773 7.72266C13.1289 7.57422 12.9531 7.5 12.75 7.5H11.25C11.0469 7.5 10.8711 7.57422 10.7227 7.72266C10.5742 7.87109 10.5 8.04688 10.5 8.25V9.75C10.5 9.95312 10.5742 10.1289 10.7227 10.2773C10.8711 10.4258 11.0469 10.5 11.25 10.5H12.75C12.9531 10.5 13.1289 10.4258 13.2773 10.2773C13.4258 10.1289 13.5 9.95312 13.5 9.75V8.25ZM13.5 12.75C13.5 12.5469 13.4258 12.3711 13.2773 12.2227C13.1289 12.0742 12.9531 12 12.75 12H11.25C11.0469 12 10.8711 12.0742 10.7227 12.2227C10.5742 12.3711 10.5 12.5469 10.5 12.75V14.25C10.5 14.4531 10.5742 14.6289 10.7227 14.7773C10.8711 14.9258 11.0469 15 11.25 15H12.75C12.9531 15 13.1289 14.9258 13.2773 14.7773C13.4258 14.6289 13.5 14.4531 13.5 14.25V12.75ZM14.25 18H9.75C9.54688 18 9.37109 18.0742 9.22266 18.2227C9.07422 18.3711 9 18.5469 9 18.75V21.75C9 21.9531 9.07422 22.1289 9.22266 22.2773C9.37109 22.4258 9.54688 22.5 9.75 22.5H14.25C14.4531 22.5 14.6289 22.4258 14.7773 22.2773C14.9258 22.1289 15 21.9531 15 21.75V18.75C15 18.5469 14.9258 18.3711 14.7773 18.2227C14.6289 18.0742 14.4531 18 14.25 18ZM18 3.75C18 3.54688 17.9258 3.37109 17.7773 3.22266C17.6289 3.07422 17.4531 3 17.25 3H15.75C15.5469 3 15.3711 3.07422 15.2227 3.22266C15.0742 3.37109 15 3.54688 15 3.75V5.25C15 5.45312 15.0742 5.62891 15.2227 5.77734C15.3711 5.92578 15.5469 6 15.75 6H17.25C17.4531 6 17.6289 5.92578 17.7773 5.77734C17.9258 5.62891 18 5.45312 18 5.25V3.75ZM18 8.25C18 8.04688 17.9258 7.87109 17.7773 7.72266C17.6289 7.57422 17.4531 7.5 17.25 7.5H15.75C15.5469 7.5 15.3711 7.57422 15.2227 7.72266C15.0742 7.87109 15 8.04688 15 8.25V9.75C15 9.95312 15.0742 10.1289 15.2227 10.2773C15.3711 10.4258 15.5469 10.5 15.75 10.5H17.25C17.4531 10.5 17.6289 10.4258 17.7773 10.2773C17.9258 10.1289 18 9.95312 18 9.75V8.25ZM18 12.75C18 12.5469 17.9258 12.3711 17.7773 12.2227C17.6289 12.0742 17.4531 12 17.25 12H15.75C15.5469 12 15.3711 12.0742 15.2227 12.2227C15.0742 12.3711 15 12.5469 15 12.75V14.25C15 14.4531 15.0742 14.6289 15.2227 14.7773C15.3711 14.9258 15.5469 15 15.75 15H17.25C17.4531 15 17.6289 14.9258 17.7773 14.7773C17.9258 14.6289 18 14.4531 18 14.25V12.75Z" fill="#CC0505"/>
</g>
<defs>
<clipPath id="clip0_3_1129">
<rect width="24" height="24" fill="white"/>
</clipPath>
</defs>
</svg>
