<svg width="33" height="23" viewBox="0 0 33 23" fill="none" xmlns="http://www.w3.org/2000/svg">
<path d="M22.6664 11.4645L31.1244 4.11622V18.729L22.6664 11.4645ZM11.7677 12.709L14.7379 15.2872C15.204 15.6832 15.8118 15.9225 16.4759 15.9225H16.4993H16.5172C17.1827 15.9225 17.7905 15.6818 18.2621 15.2831L18.258 15.2858L21.2281 12.7076L30.2568 20.4615H2.74324L11.7677 12.709ZM2.73086 2.37402H30.2733L17.0438 13.864C16.8957 13.9828 16.7112 14.0469 16.5213 14.0455H16.5021H16.4842C16.2937 14.0469 16.1086 13.9823 15.9603 13.8626L15.9617 13.864L2.73086 2.37402ZM1.87695 4.11485L10.3336 11.4632L1.87695 18.7235V4.11485ZM31.5782 0.758331C31.2482 0.593324 30.8604 0.49707 30.4493 0.49707H2.55623C2.15786 0.498647 1.76512 0.591305 1.40806 0.767957L1.42318 0.761081C0.996732 0.972128 0.637609 1.29795 0.386191 1.70192C0.134773 2.10589 0.00103041 2.57199 0 3.0478L0 19.785C0.00072796 20.4624 0.270133 21.1118 0.749104 21.5908C1.22807 22.0697 1.87749 22.3391 2.55486 22.3399H30.4451C31.1225 22.3391 31.7719 22.0697 32.2509 21.5908C32.7299 21.1118 32.9993 20.4624 33 19.785V3.0478C33 2.04814 32.4238 1.18185 31.5851 0.765207L31.5699 0.758331H31.5782Z" fill="#DC0F0F"/>
</svg>
