<svg width="18" height="26" viewBox="0 0 18 26" fill="none" xmlns="http://www.w3.org/2000/svg">
<path d="M8.99995 10.8C9.99406 10.8 10.8 9.99406 10.8 8.99995C10.8 8.00584 9.99406 7.19995 8.99995 7.19995C8.00584 7.19995 7.19995 8.00584 7.19995 8.99995C7.19995 9.99406 8.00584 10.8 8.99995 10.8Z" fill="#CC0505"/>
<path d="M9 0C4.03762 0 0 3.86156 0 8.60625C0 10.8658 1.02994 13.8707 3.06112 17.5376C4.69237 20.4817 6.57956 23.1441 7.56112 24.4688C7.72699 24.6951 7.94385 24.8792 8.19413 25.0061C8.44442 25.1329 8.72108 25.1991 9.00169 25.1991C9.2823 25.1991 9.55896 25.1329 9.80924 25.0061C10.0595 24.8792 10.2764 24.6951 10.4423 24.4688C11.4221 23.1441 13.311 20.4817 14.9423 17.5376C16.9701 13.8718 18 10.8669 18 8.60625C18 3.86156 13.9624 0 9 0ZM9 12.6C8.28799 12.6 7.59196 12.3889 6.99995 11.9933C6.40793 11.5977 5.94651 11.0355 5.67403 10.3777C5.40156 9.71985 5.33027 8.99601 5.46917 8.29768C5.60808 7.59934 5.95095 6.95788 6.45442 6.45442C6.95788 5.95095 7.59934 5.60808 8.29768 5.46917C8.99601 5.33027 9.71985 5.40156 10.3777 5.67403C11.0355 5.94651 11.5977 6.40793 11.9933 6.99995C12.3889 7.59196 12.6 8.28799 12.6 9C12.599 9.95446 12.2193 10.8695 11.5444 11.5444C10.8695 12.2193 9.95446 12.599 9 12.6Z" fill="#CC0505"/>
</svg>
