<svg width="27" height="32" viewBox="0 0 27 32" fill="none" xmlns="http://www.w3.org/2000/svg">
<path fill-rule="evenodd" clip-rule="evenodd" d="M5.78467 13.6132C5.78467 11.6731 6.55533 9.81259 7.92713 8.4408C9.29892 7.06901 11.1595 6.29834 13.0995 6.29834C15.0395 6.29834 16.9 7.06901 18.2718 8.4408C19.6436 9.81259 20.4143 11.6731 20.4143 13.6132C20.4143 15.5532 19.6436 17.4137 18.2718 18.7855C16.9 20.1573 15.0395 20.928 13.0995 20.928C11.1595 20.928 9.29892 20.1573 7.92713 18.7855C6.55533 17.4137 5.78467 15.5532 5.78467 13.6132ZM13.0995 8.60828C11.7721 8.60828 10.4991 9.13558 9.5605 10.0742C8.62191 11.0128 8.09461 12.2858 8.09461 13.6132C8.09461 14.9405 8.62191 16.2135 9.5605 17.1521C10.4991 18.0907 11.7721 18.618 13.0995 18.618C14.4269 18.618 15.6999 18.0907 16.6385 17.1521C17.5771 16.2135 18.1043 14.9405 18.1043 13.6132C18.1043 12.2858 17.5771 11.0128 16.6385 10.0742C15.6999 9.13558 14.4269 8.60828 13.0995 8.60828Z" fill="#DC0F0F"/>
<path fill-rule="evenodd" clip-rule="evenodd" d="M0.0466997 11.8529C0.310612 8.66053 1.765 5.68402 4.12128 3.51402C6.47755 1.34402 9.5635 0.13913 12.7668 0.138428H13.432C16.6353 0.13913 19.7212 1.34402 22.0775 3.51402C24.4338 5.68402 25.8882 8.66053 26.1521 11.8529C26.4457 15.4092 25.347 18.9405 23.0876 21.7025L15.7066 30.7282C15.3907 31.1145 14.9929 31.4257 14.542 31.6395C14.0911 31.8532 13.5984 31.9641 13.0994 31.9641C12.6004 31.9641 12.1077 31.8532 11.6568 31.6395C11.2059 31.4257 10.8081 31.1145 10.4922 30.7282L3.11122 21.7025C0.851844 18.9405 -0.246867 15.4092 0.0466997 11.8529ZM12.7668 2.44837C10.1436 2.44948 7.61672 3.43648 5.68728 5.21359C3.75784 6.99071 2.56682 9.42811 2.35048 12.0423C2.10606 15.002 3.02037 17.9409 4.90065 20.2395L12.2817 29.2668C12.3809 29.3882 12.5059 29.4861 12.6476 29.5533C12.7893 29.6205 12.9441 29.6553 13.1009 29.6553C13.2578 29.6553 13.4126 29.6205 13.5543 29.5533C13.696 29.4861 13.821 29.3882 13.9202 29.2668L21.3012 20.2395C23.1804 17.9404 24.0936 15.0015 23.8483 12.0423C23.632 9.42785 22.4407 6.99023 20.511 5.21307C18.5812 3.43592 16.0539 2.44909 13.4305 2.44837H12.7668Z" fill="#DC0F0F"/>
</svg>
