<svg width="32" height="32" viewBox="0 0 32 32" fill="none" xmlns="http://www.w3.org/2000/svg">
<path d="M7.38435 16.0007V10.3363C7.40118 9.22292 7.63753 8.12377 8.07988 7.10186C8.52223 6.07994 9.16187 5.15536 9.96216 4.38107C10.7625 3.60679 11.7077 2.99803 12.7436 2.58968C13.7796 2.18132 14.886 1.9814 15.9993 2.00136C17.1127 1.9814 18.219 2.18132 19.255 2.58968C20.291 2.99803 21.2362 3.60679 22.0365 4.38107C22.8368 5.15536 23.4764 6.07994 23.9188 7.10186C24.3611 8.12377 24.5975 9.22292 24.6143 10.3363V16.0007M20.3068 27.3078C21.4492 27.3078 22.5448 26.854 23.3527 26.0462C24.1605 25.2384 24.6143 24.1428 24.6143 23.0003V18.1544M20.3068 27.3078C20.3068 28.0218 20.0232 28.7066 19.5183 29.2115C19.0134 29.7164 18.3286 30 17.6146 30H14.384C13.67 30 12.9852 29.7164 12.4804 29.2115C11.9755 28.7066 11.6918 28.0218 11.6918 27.3078C11.6918 26.5938 11.9755 25.909 12.4804 25.4042C12.9852 24.8993 13.67 24.6156 14.384 24.6156H17.6146C18.3286 24.6156 19.0134 24.8993 19.5183 25.4042C20.0232 25.909 20.3068 26.5938 20.3068 27.3078ZM4.15374 12.7701H6.30748C6.59309 12.7701 6.86699 12.8835 7.06895 13.0855C7.2709 13.2874 7.38435 13.5613 7.38435 13.8469V20.3082C7.38435 20.5938 7.2709 20.8677 7.06895 21.0696C6.86699 21.2716 6.59309 21.385 6.30748 21.385H4.15374C3.58253 21.385 3.03472 21.1581 2.63082 20.7542C2.22691 20.3503 2 19.8025 2 19.2313V14.9238C2 14.3526 2.22691 13.8048 2.63082 13.4009C3.03472 12.997 3.58253 12.7701 4.15374 12.7701ZM27.8449 21.385H25.6912C25.4056 21.385 25.1316 21.2716 24.9297 21.0696C24.7277 20.8677 24.6143 20.5938 24.6143 20.3082V13.8469C24.6143 13.5613 24.7277 13.2874 24.9297 13.0855C25.1316 12.8835 25.4056 12.7701 25.6912 12.7701H27.8449C28.4161 12.7701 28.9639 12.997 29.3678 13.4009C29.7717 13.8048 29.9986 14.3526 29.9986 14.9238V19.2313C29.9986 19.8025 29.7717 20.3503 29.3678 20.7542C28.9639 21.1581 28.4161 21.385 27.8449 21.385Z" stroke="#DC0F0F" stroke-width="2.15374" stroke-linecap="round" stroke-linejoin="round"/>
</svg>
